<?xml version="1.0" standalone="no"?>
<!DOCTYPE svg PUBLIC "-//W3C//DTD SVG 20010904//EN"
 "http://www.w3.org/TR/2001/REC-SVG-20010904/DTD/svg10.dtd">
<svg version="1.0" xmlns="http://www.w3.org/2000/svg"
 width="3109.000000pt" height="3109.000000pt" viewBox="0 0 3109.000000 3109.000000"
 preserveAspectRatio="xMidYMid meet">
<metadata>
Created by potrace 1.14, written by Peter Selinger 2001-2017
</metadata>
<g transform="translate(0.000000,3109.000000) scale(0.100000,-0.100000)"
fill="#000000" stroke="none">
<path d="M15145 31006 c-243 -83 -590 -201 -1617 -547 -309 -104 -621 -210
-693 -234 -177 -60 -2205 -744 -2745 -925 -394 -133 -1471 -496 -1490 -503 -8
-3 -240 -81 -515 -173 -275 -92 -777 -260 -1115 -374 -528 -178 -1195 -401
-1650 -550 -109 -36 -388 -126 -715 -230 -104 -33 -327 -103 -550 -172 -71
-22 -146 -46 -165 -55 -248 -107 -359 -212 -424 -399 -48 -136 -53 -320 -21
-714 2 -25 6 -85 10 -135 11 -164 16 -229 20 -280 3 -27 7 -88 10 -135 5 -89
12 -178 21 -295 4 -38 7 -90 9 -115 9 -167 16 -269 20 -295 2 -16 7 -79 10
-140 4 -60 8 -126 10 -145 2 -19 6 -80 10 -135 12 -177 14 -219 19 -285 3 -36
8 -101 11 -145 3 -44 8 -105 10 -135 2 -30 7 -95 10 -145 3 -49 7 -112 10
-140 2 -27 7 -93 10 -145 4 -52 8 -117 10 -145 2 -27 7 -95 10 -150 4 -55 8
-124 11 -154 2 -30 7 -86 9 -125 3 -39 7 -100 10 -136 2 -36 7 -108 10 -160 3
-52 7 -117 10 -145 2 -27 7 -90 10 -140 7 -104 12 -189 20 -295 14 -180 20
-269 30 -445 3 -38 7 -97 10 -130 2 -33 7 -100 10 -150 3 -49 8 -119 11 -155
3 -36 7 -103 9 -150 3 -47 7 -105 9 -130 3 -25 8 -92 11 -150 3 -58 8 -131 11
-163 2 -31 6 -90 9 -130 2 -39 7 -103 10 -142 8 -109 14 -203 20 -290 2 -44 7
-116 10 -160 3 -44 7 -114 10 -155 3 -41 7 -106 10 -145 3 -38 7 -106 10 -150
3 -44 8 -102 10 -130 2 -27 7 -95 10 -150 3 -55 8 -125 10 -155 3 -30 7 -95
10 -145 3 -49 8 -119 10 -155 9 -122 15 -205 20 -295 3 -49 8 -121 11 -160 7
-97 12 -175 19 -275 12 -198 16 -257 20 -297 3 -23 7 -91 10 -150 3 -59 7
-128 10 -153 5 -49 14 -164 20 -275 2 -38 6 -106 10 -150 11 -163 14 -212 20
-315 3 -58 8 -118 10 -135 2 -16 7 -82 10 -145 4 -63 9 -131 11 -150 1 -19 6
-84 9 -145 4 -60 8 -128 10 -150 2 -22 6 -89 10 -150 4 -60 9 -126 10 -145 22
-235 22 -426 0 -512 -31 -120 -51 -146 -370 -468 -167 -168 -332 -335 -366
-372 -35 -36 -139 -144 -231 -240 -91 -95 -187 -195 -213 -223 -26 -27 -105
-111 -175 -185 -71 -74 -150 -157 -176 -185 -325 -345 -697 -726 -989 -1016
-231 -228 -275 -271 -444 -428 -57 -53 -120 -112 -141 -131 -20 -19 -68 -62
-105 -95 -38 -33 -76 -67 -85 -75 -20 -19 -147 -130 -180 -158 -56 -47 -70
-59 -114 -96 l-46 -39 0 -207 0 -208 63 -74 c34 -41 80 -96 102 -122 22 -27
52 -63 67 -80 81 -96 241 -285 548 -651 190 -226 401 -477 470 -558 308 -366
858 -1020 1065 -1267 80 -96 164 -195 185 -220 21 -25 91 -108 155 -185 65
-77 134 -160 155 -185 21 -25 122 -146 225 -270 103 -124 204 -245 225 -270
21 -25 107 -128 192 -230 84 -102 161 -194 170 -205 10 -11 95 -114 189 -230
94 -115 175 -212 178 -215 4 -3 22 -25 41 -50 19 -25 37 -47 40 -50 3 -3 89
-106 190 -230 250 -306 322 -383 435 -466 33 -24 65 -48 70 -52 6 -4 39 -22
75 -39 106 -51 181 -67 310 -66 165 0 265 29 520 148 271 127 458 208 730 317
209 84 214 86 220 85 3 0 16 6 30 13 14 8 27 15 30 15 6 1 318 123 345 135 11
5 56 23 100 40 44 17 89 35 100 40 11 5 72 30 135 56 63 25 133 54 155 64 191
84 341 141 410 155 247 51 403 -43 507 -305 23 -57 100 -321 114 -389 3 -13 9
-32 15 -43 5 -10 7 -18 5 -18 -3 0 -1 -11 4 -25 5 -14 12 -36 14 -48 3 -12 26
-94 51 -182 25 -88 47 -167 49 -175 3 -8 43 -150 91 -315 47 -165 94 -329 104
-365 19 -65 117 -401 213 -725 27 -93 58 -199 68 -235 10 -36 50 -175 89 -310
75 -255 240 -834 246 -860 60 -250 142 -464 228 -590 66 -96 200 -210 316
-270 81 -41 305 -115 441 -145 8 -1 83 -22 165 -45 83 -22 157 -43 165 -45 8
-2 65 -17 125 -35 108 -30 127 -36 163 -44 9 -3 197 -56 417 -119 220 -63 409
-117 420 -120 29 -8 457 -134 550 -162 44 -13 204 -60 355 -105 481 -142 719
-213 790 -236 74 -23 601 -181 835 -250 248 -73 337 -88 530 -88 106 0 251 10
265 19 3 2 23 6 45 9 41 7 236 61 430 121 61 18 155 47 210 64 55 16 161 48
235 71 74 23 140 42 145 44 17 4 118 34 480 143 193 57 357 106 365 109 42 10
114 31 445 129 330 98 759 222 795 230 8 2 110 31 225 64 116 33 244 69 285
80 96 25 474 128 520 141 19 6 100 28 180 49 274 75 428 157 566 302 147 156
212 301 329 734 57 214 198 716 216 770 5 17 30 102 55 190 25 88 52 180 61
205 8 25 26 86 40 135 13 50 31 111 39 138 17 56 43 146 49 167 2 8 38 130 80
270 42 140 78 262 80 270 2 8 29 103 60 210 32 107 61 209 65 225 4 17 53 194
109 395 56 201 113 408 127 460 78 285 186 442 339 495 94 33 269 16 393 -36
23 -10 43 -18 45 -18 1 1 18 -5 37 -14 19 -8 114 -48 210 -89 96 -41 231 -96
300 -122 69 -26 134 -52 145 -57 11 -5 115 -44 230 -88 466 -174 661 -260
1045 -457 63 -33 131 -65 150 -72 19 -8 44 -17 55 -22 143 -61 372 -85 511
-56 278 60 488 225 829 651 48 61 103 128 121 150 17 22 87 108 154 190 67 83
137 168 155 190 96 117 193 236 220 269 17 21 38 48 48 60 11 11 34 39 52 61
218 264 790 951 974 1170 130 154 243 288 251 299 8 10 20 23 25 30 6 6 60 70
120 141 168 200 333 394 384 454 25 30 57 67 71 84 33 40 314 372 354 418 17
20 49 58 71 85 32 38 183 217 309 364 42 50 227 268 321 380 54 63 117 138
140 165 23 28 133 157 244 288 l201 239 0 140 c0 133 -1 142 -22 162 -13 12
-131 134 -263 270 -305 316 -341 353 -625 646 -129 133 -269 277 -310 320 -41
43 -188 194 -326 337 -139 142 -289 296 -334 343 -185 192 -867 888 -1239
1265 -130 132 -251 258 -270 280 -112 134 -214 332 -236 457 -3 17 -8 35 -11
39 -7 12 -18 154 -18 239 0 70 9 234 19 340 4 41 7 78 20 277 11 162 16 221
20 273 2 30 7 96 10 145 3 50 8 110 10 135 2 25 6 90 10 145 3 55 8 125 10
155 3 30 7 89 10 130 7 102 14 200 21 290 3 41 7 107 9 145 3 39 7 102 10 140
3 39 7 102 10 140 7 118 16 238 20 290 3 28 7 91 11 140 3 50 7 110 9 135 1
25 6 93 9 151 4 59 8 126 11 150 2 24 6 87 10 139 3 52 8 115 10 140 2 25 6
90 10 145 3 55 8 125 10 155 5 68 13 187 20 300 3 47 8 108 10 135 3 28 7 93
10 145 6 98 11 184 20 305 3 39 7 100 9 136 4 64 13 187 21 296 2 29 7 96 10
150 3 54 8 118 10 143 5 45 10 126 20 290 3 47 7 114 10 150 3 36 7 103 10
150 3 47 7 108 10 135 2 28 7 93 10 145 3 52 7 120 10 150 2 30 7 93 10 140 3
47 8 117 11 155 2 39 7 99 9 135 4 60 6 97 20 305 3 39 7 104 10 145 3 41 7
104 10 140 2 36 7 103 10 150 3 47 7 112 10 145 3 33 7 96 10 140 3 44 8 109
11 145 2 36 7 99 9 140 2 41 7 109 10 150 3 41 7 102 10 135 2 33 7 101 10
150 4 50 8 115 10 145 2 30 7 93 10 140 4 47 8 110 10 140 5 85 16 241 20 280
2 19 6 85 10 145 4 61 8 126 10 145 2 19 6 82 10 140 3 57 8 120 10 140 2 19
6 76 9 125 14 204 17 242 21 295 2 30 7 91 10 135 3 44 8 107 10 140 3 33 7
103 11 155 3 52 8 109 10 125 9 74 18 269 17 370 -4 322 -131 510 -433 638
-47 20 -197 72 -335 117 -137 45 -293 96 -345 113 -52 17 -97 32 -100 32 -3 1
-12 4 -20 8 -8 3 -73 24 -145 47 -109 35 -710 230 -1090 355 -55 18 -235 76
-400 130 -165 53 -309 100 -320 105 -11 5 -202 68 -425 140 -223 72 -443 144
-490 160 -47 15 -348 115 -670 220 -322 106 -650 213 -730 240 -80 26 -401
132 -715 235 -313 103 -635 209 -715 235 -253 83 -1013 334 -1335 439 -170 56
-317 105 -325 108 -8 3 -19 7 -25 8 -5 2 -57 19 -115 38 -359 119 -1751 577
-1880 619 -85 28 -164 54 -175 59 -11 4 -256 85 -544 180 -553 181 -531 172
-623 262 -16 15 -38 17 -165 16 l-148 -1 -240 -82z m-5985 -14941 c57 -4 113
-9 124 -11 11 -2 56 -8 100 -14 45 -6 115 -18 156 -27 41 -8 83 -17 93 -18 9
-2 68 -18 130 -36 1013 -286 1812 -1054 2149 -2064 22 -66 42 -127 43 -135 2
-8 15 -62 29 -120 24 -104 40 -187 51 -265 3 -22 7 -49 10 -60 11 -54 19 -218
19 -380 1 -210 -7 -324 -34 -485 -5 -30 -12 -71 -15 -90 -3 -19 -13 -64 -21
-100 -9 -36 -18 -75 -20 -88 -10 -52 -78 -264 -121 -371 -44 -113 -165 -365
-200 -419 -10 -15 -22 -35 -28 -44 -231 -399 -616 -787 -1045 -1054 -284 -177
-697 -343 -995 -400 -11 -2 -42 -8 -70 -13 -27 -6 -86 -15 -130 -21 -44 -6
-90 -13 -102 -15 -136 -22 -576 -23 -703 -1 -14 3 -47 7 -75 11 -86 11 -120
16 -134 21 -8 2 -30 7 -50 10 -100 15 -241 55 -440 124 -718 251 -1340 800
-1699 1500 -108 210 -224 516 -257 678 -2 9 -12 58 -24 109 -11 51 -25 128
-31 171 -6 43 -12 89 -15 101 -26 136 -26 585 1 779 25 189 41 269 89 442 45
162 95 305 155 435 221 487 525 875 945 1206 77 61 250 180 305 210 19 11 51
29 70 41 40 24 225 116 285 142 22 10 54 24 70 31 138 62 423 144 615 179 146
26 178 30 345 41 55 4 101 7 102 8 4 4 228 -1 323 -8z m13176 1 c61 -4 122 -9
135 -11 13 -2 73 -11 133 -20 59 -9 118 -19 130 -21 11 -3 44 -9 71 -14 249
-49 636 -201 889 -350 74 -44 238 -150 246 -159 3 -3 32 -26 65 -50 112 -83
170 -135 325 -290 351 -353 590 -741 747 -1210 45 -136 105 -366 118 -456 1
-11 6 -42 10 -70 3 -27 8 -57 10 -65 26 -104 27 -685 1 -816 -2 -12 -7 -45
-11 -75 -5 -43 -29 -164 -50 -259 -65 -294 -215 -652 -389 -930 -203 -324
-499 -645 -780 -845 -16 -11 -40 -29 -55 -41 -55 -43 -369 -234 -386 -234 -3
0 -40 -18 -85 -39 -265 -130 -652 -240 -965 -275 -206 -24 -578 -24 -705 -1
-14 2 -43 6 -65 9 -67 8 -266 45 -330 61 -33 8 -70 18 -83 20 -13 3 -82 25
-155 49 -373 123 -726 320 -1032 577 -102 86 -278 258 -345 338 -25 29 -53 63
-64 75 -10 11 -30 37 -45 56 -14 19 -29 37 -32 40 -16 14 -163 239 -217 331
-170 295 -305 657 -358 965 -3 16 -7 36 -9 44 -2 8 -7 38 -11 65 -3 28 -8 57
-9 66 -2 9 -6 52 -10 95 -4 43 -8 90 -11 104 -15 88 1 518 22 625 3 11 7 39
10 61 5 44 8 63 18 104 3 14 8 37 10 52 10 60 59 239 98 353 123 366 354 770
603 1055 148 168 392 390 572 518 319 227 721 412 1063 488 151 34 249 53 305
59 33 4 69 9 80 11 11 2 72 7 135 10 63 4 116 7 117 8 4 3 189 -2 289 -8z
m-6710 -6458 c114 -49 179 -113 296 -293 117 -179 213 -328 264 -408 27 -43
86 -135 132 -205 45 -70 85 -134 89 -142 4 -8 30 -50 57 -92 28 -42 78 -119
110 -170 33 -51 80 -124 105 -163 64 -100 497 -750 587 -880 120 -175 160
-267 171 -391 15 -187 -78 -337 -353 -564 -49 -41 -91 -77 -94 -80 -3 -4 -34
-26 -70 -50 -226 -153 -409 -139 -596 45 -39 39 -90 97 -115 130 -42 58 -136
172 -263 320 -94 111 -248 260 -299 289 -71 42 -151 46 -219 13 -98 -49 -172
-131 -466 -519 -153 -202 -309 -325 -448 -353 -181 -37 -392 61 -635 293 -186
177 -252 301 -245 460 4 82 40 188 89 260 14 21 69 105 123 187 53 83 143 220
199 305 55 85 131 202 169 260 37 58 100 155 139 216 78 120 233 359 311 482
28 42 82 127 121 187 39 61 102 157 139 215 37 58 97 150 132 205 145 225 185
282 226 326 67 70 136 114 198 126 13 2 26 6 28 8 7 7 89 -5 118 -17z"/>
</g>
</svg>
