<?xml version="1.0" standalone="no"?>
<!DOCTYPE svg PUBLIC "-//W3C//DTD SVG 20010904//EN"
 "http://www.w3.org/TR/2001/REC-SVG-20010904/DTD/svg10.dtd">
<svg version="1.0" xmlns="http://www.w3.org/2000/svg"
 width="150.000000pt" height="150.000000pt" viewBox="0 0 150.000000 150.000000"
 preserveAspectRatio="xMidYMid meet">
<metadata>
Created by potrace 1.14, written by Peter Selinger 2001-2017
</metadata>
<g transform="translate(0.000000,150.000000) scale(0.100000,-0.100000)"
fill="#000000" stroke="none">
<path d="M0 750 l0 -750 750 0 750 0 0 750 0 750 -750 0 -750 0 0 -750z m1430
0 l0 -680 -680 0 -680 0 0 680 0 680 680 0 680 0 0 -680z"/>
<path d="M991 1100 l-55 -5 1 -142 0 -143 -188 0 c-173 0 -189 1 -190 18 0 9
-2 73 -2 142 l-2 125 -87 3 -88 3 0 -356 0 -355 89 0 89 0 0 133 c0 72 1 138
1 145 1 10 42 12 189 10 l187 -3 0 -143 0 -142 88 0 c62 0 87 4 88 13 4 52 3
681 -1 687 -8 11 -59 16 -119 10z"/>
</g>
</svg>
